<mxfile host="65bd71144e">
    <diagram id="C5RBs43oDa-KdzZeNtuy" name="Page-1">
        <mxGraphModel dx="913" dy="675" grid="0" gridSize="10" guides="1" tooltips="1" connect="1" arrows="1" fold="1" page="1" pageScale="1" pageWidth="827" pageHeight="1169" math="0" shadow="0">
            <root>
                <mxCell id="WIyWlLk6GJQsqaUBKTNV-0"/>
                <mxCell id="WIyWlLk6GJQsqaUBKTNV-1" parent="WIyWlLk6GJQsqaUBKTNV-0"/>
                <mxCell id="9OZRC_NavAZGSDA5mFGG-38" value="Station Flow" style="swimlane;strokeWidth=1;fontSize=12;startSize=23;fontFamily=프리텐다드;html=1;fontSource=https%3A%2F%2Fcdn.jsdelivr.net%2Fgh%2FProject-Noonnu%2Fnoonfonts_2107%401.1%2FPretendard-Regular.woff;" parent="WIyWlLk6GJQsqaUBKTNV-1" vertex="1">
                    <mxGeometry x="55" y="63" width="710" height="644" as="geometry"/>
                </mxCell>
                <mxCell id="44" style="edgeStyle=none;html=1;exitX=0.5;exitY=1;exitDx=0;exitDy=0;entryX=0.5;entryY=0;entryDx=0;entryDy=0;fontFamily=프리텐다드;fontSource=https%3A%2F%2Fcdn.jsdelivr.net%2Fgh%2FProject-Noonnu%2Fnoonfonts_2107%401.1%2FPretendard-Regular.woff;" parent="9OZRC_NavAZGSDA5mFGG-38" source="23" target="24" edge="1">
                    <mxGeometry relative="1" as="geometry"/>
                </mxCell>
                <mxCell id="23" value="시작" style="rounded=0;whiteSpace=wrap;html=1;fontFamily=프리텐다드;fontSource=https%3A%2F%2Fcdn.jsdelivr.net%2Fgh%2FProject-Noonnu%2Fnoonfonts_2107%401.1%2FPretendard-Regular.woff;" parent="9OZRC_NavAZGSDA5mFGG-38" vertex="1">
                    <mxGeometry x="295" y="42" width="120" height="30" as="geometry"/>
                </mxCell>
                <mxCell id="45" style="edgeStyle=none;html=1;exitX=0.5;exitY=1;exitDx=0;exitDy=0;entryX=0.5;entryY=0;entryDx=0;entryDy=0;fontFamily=프리텐다드;fontSource=https%3A%2F%2Fcdn.jsdelivr.net%2Fgh%2FProject-Noonnu%2Fnoonfonts_2107%401.1%2FPretendard-Regular.woff;" parent="9OZRC_NavAZGSDA5mFGG-38" source="24" target="26" edge="1">
                    <mxGeometry relative="1" as="geometry"/>
                </mxCell>
                <mxCell id="24" value="I2C 데이터 요청 함수 호출" style="rounded=0;whiteSpace=wrap;html=1;fontFamily=프리텐다드;fontSource=https%3A%2F%2Fcdn.jsdelivr.net%2Fgh%2FProject-Noonnu%2Fnoonfonts_2107%401.1%2FPretendard-Regular.woff;" parent="9OZRC_NavAZGSDA5mFGG-38" vertex="1">
                    <mxGeometry x="288" y="99" width="134" height="38" as="geometry"/>
                </mxCell>
                <mxCell id="46" style="edgeStyle=none;html=1;exitX=0.5;exitY=1;exitDx=0;exitDy=0;entryX=0.5;entryY=0;entryDx=0;entryDy=0;fontFamily=프리텐다드;fontSource=https%3A%2F%2Fcdn.jsdelivr.net%2Fgh%2FProject-Noonnu%2Fnoonfonts_2107%401.1%2FPretendard-Regular.woff;" parent="9OZRC_NavAZGSDA5mFGG-38" source="26" target="28" edge="1">
                    <mxGeometry relative="1" as="geometry"/>
                </mxCell>
                <mxCell id="26" value="RF로 전달할 메세지 작성 함수 호출" style="rounded=0;whiteSpace=wrap;html=1;fontFamily=프리텐다드;fontSource=https%3A%2F%2Fcdn.jsdelivr.net%2Fgh%2FProject-Noonnu%2Fnoonfonts_2107%401.1%2FPretendard-Regular.woff;" parent="9OZRC_NavAZGSDA5mFGG-38" vertex="1">
                    <mxGeometry x="266.5" y="154" width="177" height="38" as="geometry"/>
                </mxCell>
                <mxCell id="39" style="edgeStyle=none;html=1;exitX=0;exitY=0.5;exitDx=0;exitDy=0;entryX=1;entryY=0.5;entryDx=0;entryDy=0;fontFamily=프리텐다드;fontSource=https%3A%2F%2Fcdn.jsdelivr.net%2Fgh%2FProject-Noonnu%2Fnoonfonts_2107%401.1%2FPretendard-Regular.woff;" parent="9OZRC_NavAZGSDA5mFGG-38" source="28" target="30" edge="1">
                    <mxGeometry relative="1" as="geometry"/>
                </mxCell>
                <mxCell id="40" value="" style="edgeStyle=none;html=1;fontFamily=프리텐다드;fontSource=https%3A%2F%2Fcdn.jsdelivr.net%2Fgh%2FProject-Noonnu%2Fnoonfonts_2107%401.1%2FPretendard-Regular.woff;" parent="9OZRC_NavAZGSDA5mFGG-38" source="28" target="31" edge="1">
                    <mxGeometry relative="1" as="geometry"/>
                </mxCell>
                <mxCell id="28" value="Cast?" style="rhombus;whiteSpace=wrap;html=1;fontFamily=프리텐다드;fontSource=https%3A%2F%2Fcdn.jsdelivr.net%2Fgh%2FProject-Noonnu%2Fnoonfonts_2107%401.1%2FPretendard-Regular.woff;" parent="9OZRC_NavAZGSDA5mFGG-38" vertex="1">
                    <mxGeometry x="315" y="207" width="80" height="41" as="geometry"/>
                </mxCell>
                <mxCell id="38" style="edgeStyle=none;html=1;exitX=0.5;exitY=1;exitDx=0;exitDy=0;entryX=0.5;entryY=0;entryDx=0;entryDy=0;fontFamily=프리텐다드;fontSource=https%3A%2F%2Fcdn.jsdelivr.net%2Fgh%2FProject-Noonnu%2Fnoonfonts_2107%401.1%2FPretendard-Regular.woff;" parent="9OZRC_NavAZGSDA5mFGG-38" source="30" target="32" edge="1">
                    <mxGeometry relative="1" as="geometry"/>
                </mxCell>
                <mxCell id="30" value="SingleCast" style="rounded=0;whiteSpace=wrap;html=1;fontFamily=프리텐다드;fontSource=https%3A%2F%2Fcdn.jsdelivr.net%2Fgh%2FProject-Noonnu%2Fnoonfonts_2107%401.1%2FPretendard-Regular.woff;" parent="9OZRC_NavAZGSDA5mFGG-38" vertex="1">
                    <mxGeometry x="138" y="208.5" width="128.5" height="38" as="geometry"/>
                </mxCell>
                <mxCell id="53" style="edgeStyle=none;html=1;exitX=0.5;exitY=1;exitDx=0;exitDy=0;entryX=0.5;entryY=0;entryDx=0;entryDy=0;fontFamily=프리텐다드;fontSource=https%3A%2F%2Fcdn.jsdelivr.net%2Fgh%2FProject-Noonnu%2Fnoonfonts_2107%401.1%2FPretendard-Regular.woff;" parent="9OZRC_NavAZGSDA5mFGG-38" source="31" target="52" edge="1">
                    <mxGeometry relative="1" as="geometry"/>
                </mxCell>
                <mxCell id="31" value="Broadcast" style="rounded=0;whiteSpace=wrap;html=1;fontFamily=프리텐다드;fontSource=https%3A%2F%2Fcdn.jsdelivr.net%2Fgh%2FProject-Noonnu%2Fnoonfonts_2107%401.1%2FPretendard-Regular.woff;" parent="9OZRC_NavAZGSDA5mFGG-38" vertex="1">
                    <mxGeometry x="443.5" y="208.5" width="124.5" height="38" as="geometry"/>
                </mxCell>
                <mxCell id="36" style="edgeStyle=none;html=1;exitX=0;exitY=0.5;exitDx=0;exitDy=0;entryX=0.5;entryY=0;entryDx=0;entryDy=0;fontFamily=프리텐다드;fontSource=https%3A%2F%2Fcdn.jsdelivr.net%2Fgh%2FProject-Noonnu%2Fnoonfonts_2107%401.1%2FPretendard-Regular.woff;" parent="9OZRC_NavAZGSDA5mFGG-38" source="32" target="34" edge="1">
                    <mxGeometry relative="1" as="geometry">
                        <Array as="points">
                            <mxPoint x="126" y="303"/>
                        </Array>
                    </mxGeometry>
                </mxCell>
                <mxCell id="37" style="edgeStyle=none;html=1;exitX=1;exitY=0.5;exitDx=0;exitDy=0;entryX=0.5;entryY=0;entryDx=0;entryDy=0;fontFamily=프리텐다드;fontSource=https%3A%2F%2Fcdn.jsdelivr.net%2Fgh%2FProject-Noonnu%2Fnoonfonts_2107%401.1%2FPretendard-Regular.woff;" parent="9OZRC_NavAZGSDA5mFGG-38" source="32" target="35" edge="1">
                    <mxGeometry relative="1" as="geometry">
                        <Array as="points">
                            <mxPoint x="281" y="303"/>
                        </Array>
                    </mxGeometry>
                </mxCell>
                <mxCell id="32" value="ACK?" style="rhombus;whiteSpace=wrap;html=1;fontFamily=프리텐다드;fontSource=https%3A%2F%2Fcdn.jsdelivr.net%2Fgh%2FProject-Noonnu%2Fnoonfonts_2107%401.1%2FPretendard-Regular.woff;" parent="9OZRC_NavAZGSDA5mFGG-38" vertex="1">
                    <mxGeometry x="162.25" y="282" width="80" height="41" as="geometry"/>
                </mxCell>
                <mxCell id="60" style="edgeStyle=none;html=1;exitX=0.5;exitY=1;exitDx=0;exitDy=0;entryX=0;entryY=0;entryDx=0;entryDy=0;fontFamily=프리텐다드;fontSource=https%3A%2F%2Fcdn.jsdelivr.net%2Fgh%2FProject-Noonnu%2Fnoonfonts_2107%401.1%2FPretendard-Regular.woff;" parent="9OZRC_NavAZGSDA5mFGG-38" source="34" target="59" edge="1">
                    <mxGeometry relative="1" as="geometry"/>
                </mxCell>
                <mxCell id="34" value="flag = 1&lt;br&gt;Cast = 1&lt;br&gt;Timer set" style="rounded=0;whiteSpace=wrap;html=1;fontFamily=프리텐다드;fontSource=https%3A%2F%2Fcdn.jsdelivr.net%2Fgh%2FProject-Noonnu%2Fnoonfonts_2107%401.1%2FPretendard-Regular.woff;" parent="9OZRC_NavAZGSDA5mFGG-38" vertex="1">
                    <mxGeometry x="61.63" y="343" width="128.5" height="56" as="geometry"/>
                </mxCell>
                <mxCell id="61" style="edgeStyle=none;html=1;exitX=0.5;exitY=1;exitDx=0;exitDy=0;entryX=0.5;entryY=0;entryDx=0;entryDy=0;fontFamily=프리텐다드;fontSource=https%3A%2F%2Fcdn.jsdelivr.net%2Fgh%2FProject-Noonnu%2Fnoonfonts_2107%401.1%2FPretendard-Regular.woff;" parent="9OZRC_NavAZGSDA5mFGG-38" source="35" target="59" edge="1">
                    <mxGeometry relative="1" as="geometry"/>
                </mxCell>
                <mxCell id="35" value="Cast = 0" style="rounded=0;whiteSpace=wrap;html=1;fontFamily=프리텐다드;fontSource=https%3A%2F%2Fcdn.jsdelivr.net%2Fgh%2FProject-Noonnu%2Fnoonfonts_2107%401.1%2FPretendard-Regular.woff;" parent="9OZRC_NavAZGSDA5mFGG-38" vertex="1">
                    <mxGeometry x="216.38" y="343" width="128.5" height="58" as="geometry"/>
                </mxCell>
                <mxCell id="41" value="0" style="text;html=1;strokeColor=none;fillColor=none;align=center;verticalAlign=middle;whiteSpace=wrap;rounded=0;fontFamily=프리텐다드;fontSource=https%3A%2F%2Fcdn.jsdelivr.net%2Fgh%2FProject-Noonnu%2Fnoonfonts_2107%401.1%2FPretendard-Regular.woff;" parent="9OZRC_NavAZGSDA5mFGG-38" vertex="1">
                    <mxGeometry x="266.5" y="222" width="60" height="30" as="geometry"/>
                </mxCell>
                <mxCell id="42" value="1" style="text;html=1;strokeColor=none;fillColor=none;align=center;verticalAlign=middle;whiteSpace=wrap;rounded=0;fontFamily=프리텐다드;fontSource=https%3A%2F%2Fcdn.jsdelivr.net%2Fgh%2FProject-Noonnu%2Fnoonfonts_2107%401.1%2FPretendard-Regular.woff;" parent="9OZRC_NavAZGSDA5mFGG-38" vertex="1">
                    <mxGeometry x="388" y="226" width="60" height="30" as="geometry"/>
                </mxCell>
                <mxCell id="49" style="edgeStyle=none;html=1;exitX=1;exitY=0.5;exitDx=0;exitDy=0;entryX=0.5;entryY=0;entryDx=0;entryDy=0;fontFamily=프리텐다드;fontSource=https%3A%2F%2Fcdn.jsdelivr.net%2Fgh%2FProject-Noonnu%2Fnoonfonts_2107%401.1%2FPretendard-Regular.woff;" parent="9OZRC_NavAZGSDA5mFGG-38" source="52" target="51" edge="1">
                    <mxGeometry relative="1" as="geometry">
                        <Array as="points">
                            <mxPoint x="584.37" y="303"/>
                        </Array>
                    </mxGeometry>
                </mxCell>
                <mxCell id="63" style="edgeStyle=none;html=1;exitX=0.5;exitY=1;exitDx=0;exitDy=0;entryX=1;entryY=0;entryDx=0;entryDy=0;fontFamily=프리텐다드;fontSource=https%3A%2F%2Fcdn.jsdelivr.net%2Fgh%2FProject-Noonnu%2Fnoonfonts_2107%401.1%2FPretendard-Regular.woff;" parent="9OZRC_NavAZGSDA5mFGG-38" source="51" target="59" edge="1">
                    <mxGeometry relative="1" as="geometry"/>
                </mxCell>
                <mxCell id="51" value="Cast = 0" style="rounded=0;whiteSpace=wrap;html=1;fontFamily=프리텐다드;fontSource=https%3A%2F%2Fcdn.jsdelivr.net%2Fgh%2FProject-Noonnu%2Fnoonfonts_2107%401.1%2FPretendard-Regular.woff;" parent="9OZRC_NavAZGSDA5mFGG-38" vertex="1">
                    <mxGeometry x="519.75" y="343" width="128.5" height="56" as="geometry"/>
                </mxCell>
                <mxCell id="108" style="edgeStyle=none;html=1;exitX=0;exitY=0.5;exitDx=0;exitDy=0;entryX=0.5;entryY=0;entryDx=0;entryDy=0;" edge="1" parent="9OZRC_NavAZGSDA5mFGG-38" source="52" target="59">
                    <mxGeometry relative="1" as="geometry">
                        <Array as="points">
                            <mxPoint x="416" y="303"/>
                        </Array>
                    </mxGeometry>
                </mxCell>
                <mxCell id="52" value="timer?" style="rhombus;whiteSpace=wrap;html=1;fontFamily=프리텐다드;fontSource=https%3A%2F%2Fcdn.jsdelivr.net%2Fgh%2FProject-Noonnu%2Fnoonfonts_2107%401.1%2FPretendard-Regular.woff;" parent="9OZRC_NavAZGSDA5mFGG-38" vertex="1">
                    <mxGeometry x="465.62" y="282" width="80" height="41" as="geometry"/>
                </mxCell>
                <mxCell id="54" value="0" style="text;html=1;strokeColor=none;fillColor=none;align=center;verticalAlign=middle;whiteSpace=wrap;rounded=0;fontFamily=프리텐다드;fontSource=https%3A%2F%2Fcdn.jsdelivr.net%2Fgh%2FProject-Noonnu%2Fnoonfonts_2107%401.1%2FPretendard-Regular.woff;" parent="9OZRC_NavAZGSDA5mFGG-38" vertex="1">
                    <mxGeometry x="266.5" y="313" width="60" height="30" as="geometry"/>
                </mxCell>
                <mxCell id="55" value="1" style="text;html=1;strokeColor=none;fillColor=none;align=center;verticalAlign=middle;whiteSpace=wrap;rounded=0;fontFamily=프리텐다드;fontSource=https%3A%2F%2Fcdn.jsdelivr.net%2Fgh%2FProject-Noonnu%2Fnoonfonts_2107%401.1%2FPretendard-Regular.woff;" parent="9OZRC_NavAZGSDA5mFGG-38" vertex="1">
                    <mxGeometry x="73" y="313" width="60" height="30" as="geometry"/>
                </mxCell>
                <mxCell id="57" value="under" style="text;html=1;strokeColor=none;fillColor=none;align=center;verticalAlign=middle;whiteSpace=wrap;rounded=0;fontFamily=프리텐다드;fontSource=https%3A%2F%2Fcdn.jsdelivr.net%2Fgh%2FProject-Noonnu%2Fnoonfonts_2107%401.1%2FPretendard-Regular.woff;" parent="9OZRC_NavAZGSDA5mFGG-38" vertex="1">
                    <mxGeometry x="408" y="310" width="60" height="30" as="geometry"/>
                </mxCell>
                <mxCell id="58" value="over" style="text;html=1;strokeColor=none;fillColor=none;align=center;verticalAlign=middle;whiteSpace=wrap;rounded=0;fontFamily=프리텐다드;fontSource=https%3A%2F%2Fcdn.jsdelivr.net%2Fgh%2FProject-Noonnu%2Fnoonfonts_2107%401.1%2FPretendard-Regular.woff;" parent="9OZRC_NavAZGSDA5mFGG-38" vertex="1">
                    <mxGeometry x="583" y="313" width="60" height="30" as="geometry"/>
                </mxCell>
                <mxCell id="65" style="edgeStyle=none;html=1;exitX=0.5;exitY=1;exitDx=0;exitDy=0;entryX=0.5;entryY=0;entryDx=0;entryDy=0;fontFamily=프리텐다드;fontSource=https%3A%2F%2Fcdn.jsdelivr.net%2Fgh%2FProject-Noonnu%2Fnoonfonts_2107%401.1%2FPretendard-Regular.woff;" parent="9OZRC_NavAZGSDA5mFGG-38" source="59" target="64" edge="1">
                    <mxGeometry relative="1" as="geometry"/>
                </mxCell>
                <mxCell id="59" value="flag?" style="rhombus;whiteSpace=wrap;html=1;fontFamily=프리텐다드;fontSource=https%3A%2F%2Fcdn.jsdelivr.net%2Fgh%2FProject-Noonnu%2Fnoonfonts_2107%401.1%2FPretendard-Regular.woff;" parent="9OZRC_NavAZGSDA5mFGG-38" vertex="1">
                    <mxGeometry x="315" y="449" width="80" height="41" as="geometry"/>
                </mxCell>
                <mxCell id="64" value="경고음 재생" style="rounded=0;whiteSpace=wrap;html=1;fontFamily=프리텐다드;fontSource=https%3A%2F%2Fcdn.jsdelivr.net%2Fgh%2FProject-Noonnu%2Fnoonfonts_2107%401.1%2FPretendard-Regular.woff;" parent="9OZRC_NavAZGSDA5mFGG-38" vertex="1">
                    <mxGeometry x="290.75" y="519" width="128.5" height="38" as="geometry"/>
                </mxCell>
                <mxCell id="68" value="0" style="text;html=1;strokeColor=none;fillColor=none;align=center;verticalAlign=middle;whiteSpace=wrap;rounded=0;fontFamily=프리텐다드;fontSource=https%3A%2F%2Fcdn.jsdelivr.net%2Fgh%2FProject-Noonnu%2Fnoonfonts_2107%401.1%2FPretendard-Regular.woff;" parent="9OZRC_NavAZGSDA5mFGG-38" vertex="1">
                    <mxGeometry x="255" y="471" width="60" height="30" as="geometry"/>
                </mxCell>
                <mxCell id="107" value="1" style="text;html=1;strokeColor=none;fillColor=none;align=center;verticalAlign=middle;whiteSpace=wrap;rounded=0;fontFamily=프리텐다드;fontSource=https%3A%2F%2Fcdn.jsdelivr.net%2Fgh%2FProject-Noonnu%2Fnoonfonts_2107%401.1%2FPretendard-Regular.woff;" parent="9OZRC_NavAZGSDA5mFGG-38" vertex="1">
                    <mxGeometry x="355" y="489" width="60" height="30" as="geometry"/>
                </mxCell>
                <mxCell id="66" style="edgeStyle=none;html=1;exitX=0.5;exitY=1;exitDx=0;exitDy=0;fontFamily=프리텐다드;fontSource=https%3A%2F%2Fcdn.jsdelivr.net%2Fgh%2FProject-Noonnu%2Fnoonfonts_2107%401.1%2FPretendard-Regular.woff;" parent="WIyWlLk6GJQsqaUBKTNV-1" source="64" edge="1">
                    <mxGeometry relative="1" as="geometry">
                        <mxPoint x="410" y="147" as="targetPoint"/>
                        <Array as="points">
                            <mxPoint x="410" y="647"/>
                            <mxPoint x="78" y="647"/>
                            <mxPoint x="78" y="147"/>
                        </Array>
                    </mxGeometry>
                </mxCell>
                <mxCell id="67" style="edgeStyle=none;html=1;fontFamily=프리텐다드;fontSource=https%3A%2F%2Fcdn.jsdelivr.net%2Fgh%2FProject-Noonnu%2Fnoonfonts_2107%401.1%2FPretendard-Regular.woff;" parent="WIyWlLk6GJQsqaUBKTNV-1" source="59" edge="1">
                    <mxGeometry relative="1" as="geometry">
                        <mxPoint x="77.99996948242188" y="532.5" as="targetPoint"/>
                    </mxGeometry>
                </mxCell>
            </root>
        </mxGraphModel>
    </diagram>
</mxfile>